<svg width="25" height="25" viewBox="0 0 25 25" fill="none" xmlns="http://www.w3.org/2000/svg">
<path d="M10.1563 14.8438C10.1592 14.3197 10.0303 13.8033 9.78141 13.3421C9.53253 12.8809 9.17165 12.4897 8.73199 12.2045C8.29233 11.9193 7.78801 11.7493 7.26541 11.71C6.74282 11.6707 6.21874 11.7635 5.74141 11.9799C5.26407 12.1962 4.8488 12.5291 4.5338 12.9479C4.2188 13.3667 4.01419 13.8581 3.9388 14.3767C3.86341 14.8953 3.91966 15.4245 4.10237 15.9157C4.28508 16.4069 4.58838 16.8442 4.98438 17.1875C4.64819 17.4789 4.3781 17.8388 4.19217 18.2429C4.00624 18.6471 3.90876 19.0864 3.90625 19.5313V21.875C3.90625 22.0822 3.98856 22.2809 4.13507 22.4274C4.28159 22.574 4.4803 22.6563 4.6875 22.6563H6.25C6.4572 22.6563 6.65591 22.574 6.80243 22.4274C6.94894 22.2809 7.03125 22.0822 7.03125 21.875C7.03125 21.6678 6.94894 21.4691 6.80243 21.3226C6.65591 21.1761 6.4572 21.0938 6.25 21.0938H5.46875V19.5313C5.46875 19.1169 5.63337 18.7194 5.9264 18.4264C6.21942 18.1334 6.61685 17.9688 7.03125 17.9688C7.44565 17.9688 7.84308 18.1334 8.1361 18.4264C8.42913 18.7194 8.59375 19.1169 8.59375 19.5313V21.875C8.59375 22.0822 8.67606 22.2809 8.82257 22.4274C8.96909 22.574 9.1678 22.6563 9.375 22.6563C9.5822 22.6563 9.78091 22.574 9.92743 22.4274C10.0739 22.2809 10.1563 22.0822 10.1563 21.875V19.5313C10.1537 19.0864 10.0563 18.6471 9.87033 18.2429C9.6844 17.8388 9.41431 17.4789 9.07813 17.1875C9.41431 16.8961 9.6844 16.5363 9.87033 16.1321C10.0563 15.7279 10.1537 15.2887 10.1563 14.8438ZM5.46875 14.8438C5.46875 14.5347 5.56039 14.2326 5.73208 13.9757C5.90377 13.7187 6.1478 13.5185 6.43331 13.4002C6.71882 13.2819 7.03298 13.251 7.33608 13.3113C7.63917 13.3716 7.91758 13.5204 8.1361 13.7389C8.35462 13.9574 8.50344 14.2358 8.56373 14.5389C8.62402 14.842 8.59307 15.1562 8.47481 15.4417C8.35655 15.7272 8.15628 15.9712 7.89933 16.1429C7.64238 16.3146 7.34028 16.4063 7.03125 16.4063C6.61685 16.4063 6.21942 16.2416 5.9264 15.9486C5.63337 15.6556 5.46875 15.2582 5.46875 14.8438Z" fill="#8B97AE"/>
<path d="M20.0156 17.1875C20.497 16.7702 20.8393 16.2158 20.9968 15.5986C21.1542 14.9813 21.1193 14.3306 20.8966 13.7338C20.6739 13.1369 20.2742 12.6224 19.7509 12.2591C19.2276 11.8958 18.6058 11.7011 17.9688 11.7011C17.3317 11.7011 16.7099 11.8958 16.1866 12.2591C15.6633 12.6224 15.2636 13.1369 15.0409 13.7338C14.8182 14.3306 14.7833 14.9813 14.9407 15.5986C15.0982 16.2158 15.4405 16.7702 15.9219 17.1875C15.5857 17.4789 15.3156 17.8387 15.1297 18.2429C14.9437 18.6471 14.8463 19.0863 14.8438 19.5312V21.875C14.8438 22.0822 14.9261 22.2809 15.0726 22.4274C15.2191 22.5739 15.4178 22.6562 15.625 22.6562C15.8322 22.6562 16.0309 22.5739 16.1774 22.4274C16.3239 22.2809 16.4062 22.0822 16.4062 21.875V19.5312C16.4062 19.1168 16.5709 18.7194 16.8639 18.4264C17.1569 18.1334 17.5543 17.9687 17.9688 17.9687C18.3832 17.9687 18.7806 18.1334 19.0736 18.4264C19.3666 18.7194 19.5312 19.1168 19.5312 19.5312V21.0937H18.75C18.5428 21.0937 18.3441 21.176 18.1976 21.3226C18.0511 21.4691 17.9688 21.6678 17.9688 21.875C17.9688 22.0822 18.0511 22.2809 18.1976 22.4274C18.3441 22.5739 18.5428 22.6562 18.75 22.6562H20.3125C20.5197 22.6562 20.7184 22.5739 20.8649 22.4274C21.0114 22.2809 21.0938 22.0822 21.0938 21.875V19.5312C21.0912 19.0863 20.9938 18.6471 20.8078 18.2429C20.6219 17.8387 20.3518 17.4789 20.0156 17.1875ZM16.4062 14.8437C16.4062 14.5347 16.4979 14.2326 16.6696 13.9757C16.8413 13.7187 17.0853 13.5184 17.3708 13.4002C17.6563 13.2819 17.9705 13.251 18.2736 13.3113C18.5767 13.3715 18.8551 13.5204 19.0736 13.7389C19.2921 13.9574 19.4409 14.2358 19.5012 14.5389C19.5615 14.842 19.5306 15.1562 19.4123 15.4417C19.2941 15.7272 19.0938 15.9712 18.8368 16.1429C18.5799 16.3146 18.2778 16.4062 17.9688 16.4062C17.5543 16.4062 17.1569 16.2416 16.8639 15.9486C16.5709 15.6556 16.4062 15.2581 16.4062 14.8437Z" fill="#8B97AE"/>
<path d="M6.25 10.1562C6.4572 10.1562 6.65591 10.0739 6.80243 9.92743C6.94894 9.78091 7.03125 9.5822 7.03125 9.375V4.6875C7.03125 4.4803 7.11356 4.28159 7.26007 4.13507C7.40659 3.98856 7.6053 3.90625 7.8125 3.90625H15.625C15.8322 3.90625 16.0309 3.98856 16.1774 4.13507C16.3239 4.28159 16.4062 4.4803 16.4062 4.6875V6.25C16.4058 6.35336 16.3849 6.45562 16.3447 6.55083C16.3044 6.64605 16.2457 6.73233 16.1719 6.80469C16.0264 6.94902 15.83 7.03039 15.625 7.03125H9.375C9.1678 7.03125 8.96909 7.11356 8.82257 7.26007C8.67606 7.40659 8.59375 7.6053 8.59375 7.8125C8.59375 8.0197 8.67606 8.21841 8.82257 8.36493C8.96909 8.51144 9.1678 8.59375 9.375 8.59375H15.625C16.2466 8.59375 16.8427 8.34682 17.2823 7.90728C17.7218 7.46774 17.9688 6.8716 17.9688 6.25V4.6875C17.9688 4.0659 17.7218 3.46976 17.2823 3.03022C16.8427 2.59068 16.2466 2.34375 15.625 2.34375H7.8125C7.1909 2.34375 6.59476 2.59068 6.15522 3.03022C5.71568 3.46976 5.46875 4.0659 5.46875 4.6875V9.375C5.46875 9.5822 5.55106 9.78091 5.69757 9.92743C5.84409 10.0739 6.0428 10.1562 6.25 10.1562Z" fill="#8B97AE"/>
</svg>
