<svg width="25" height="25" viewBox="0 0 25 25" fill="none" xmlns="http://www.w3.org/2000/svg">
<path d="M4.35938 9.82821C4.50538 9.6834 4.67853 9.56883 4.8689 9.49107C5.05927 9.41331 5.26312 9.3739 5.46875 9.37509C5.88315 9.37509 6.28058 9.53971 6.57361 9.83273C6.86663 10.1258 7.03125 10.5232 7.03125 10.9376C7.03125 11.1448 7.11356 11.3435 7.26008 11.49C7.40659 11.6365 7.6053 11.7188 7.8125 11.7188C8.01971 11.7188 8.21842 11.6365 8.36493 11.49C8.51145 11.3435 8.59376 11.1448 8.59376 10.9376C8.59124 10.4927 8.49377 10.0535 8.30784 9.64927C8.12191 9.24508 7.85182 8.88524 7.51563 8.59384C7.99699 8.17658 8.33933 7.62218 8.49679 7.00491C8.65425 6.38765 8.6193 5.737 8.39662 5.14015C8.17395 4.54331 7.77418 4.02877 7.25089 3.66548C6.72761 3.30219 6.10579 3.1075 5.46875 3.1075C4.83172 3.1075 4.2099 3.30219 3.68661 3.66548C3.16332 4.02877 2.76356 4.54331 2.54088 5.14015C2.31821 5.737 2.28326 6.38765 2.44072 7.00491C2.59817 7.62218 2.94052 8.17658 3.42188 8.59384C3.36719 8.64071 3.30469 8.67978 3.25781 8.72665C2.96771 9.01708 2.73766 9.36182 2.58082 9.74118C2.42399 10.1205 2.34343 10.5271 2.34375 10.9376C2.34375 11.1448 2.42606 11.3435 2.57257 11.49C2.71909 11.6365 2.9178 11.7188 3.125 11.7188C3.3322 11.7188 3.53092 11.6365 3.67743 11.49C3.82394 11.3435 3.90625 11.1448 3.90625 10.9376C3.90506 10.732 3.94448 10.5281 4.02223 10.3377C4.09999 10.1474 4.21456 9.97421 4.35938 9.82821ZM5.46875 4.68759C5.77779 4.68759 6.07988 4.77923 6.33683 4.95092C6.59378 5.12261 6.79405 5.36664 6.91232 5.65215C7.03058 5.93766 7.06152 6.25182 7.00123 6.55492C6.94094 6.85801 6.79213 7.13642 6.57361 7.35494C6.35509 7.57346 6.07668 7.72228 5.77358 7.78257C5.47049 7.84285 5.15632 7.81191 4.87081 7.69365C4.5853 7.57539 4.34127 7.37512 4.16958 7.11817C3.99789 6.86122 3.90625 6.55912 3.90625 6.25009C3.90625 5.83569 4.07087 5.43826 4.3639 5.14523C4.65692 4.85221 5.05435 4.68759 5.46875 4.68759Z" fill="#8B97AE"/>
<path d="M9.375 10.9376C9.375 11.1448 9.45731 11.3435 9.60382 11.49C9.75034 11.6365 9.94905 11.7188 10.1563 11.7188C10.3635 11.7188 10.5622 11.6365 10.7087 11.49C10.8552 11.3435 10.9375 11.1448 10.9375 10.9376C10.9375 10.5232 11.1021 10.1258 11.3951 9.83273C11.6882 9.53971 12.0856 9.37509 12.5 9.37509C12.9144 9.37509 13.3118 9.53971 13.6049 9.83273C13.8979 10.1258 14.0625 10.5232 14.0625 10.9376C14.0625 11.1448 14.1448 11.3435 14.2913 11.49C14.4378 11.6365 14.6366 11.7188 14.8438 11.7188C15.051 11.7188 15.2497 11.6365 15.3962 11.49C15.5427 11.3435 15.625 11.1448 15.625 10.9376C15.6225 10.4927 15.525 10.0535 15.3391 9.64927C15.1532 9.24508 14.8831 8.88524 14.5469 8.59384C15.0282 8.17658 15.3706 7.62218 15.528 7.00491C15.6855 6.38765 15.6505 5.737 15.4279 5.14015C15.2052 4.54331 14.8054 4.02877 14.2821 3.66548C13.7589 3.30219 13.137 3.1075 12.5 3.1075C11.863 3.1075 11.2411 3.30219 10.7179 3.66548C10.1946 4.02877 9.79481 4.54331 9.57213 5.14015C9.34946 5.737 9.31451 6.38765 9.47196 7.00491C9.62942 7.62218 9.97177 8.17658 10.4531 8.59384C10.1169 8.88524 9.84685 9.24508 9.66092 9.64927C9.47499 10.0535 9.37751 10.4927 9.375 10.9376ZM10.9375 6.25009C10.9375 5.94106 11.0291 5.63896 11.2008 5.38201C11.3725 5.12506 11.6165 4.92479 11.9021 4.80653C12.1876 4.68826 12.5017 4.65732 12.8048 4.71761C13.1079 4.7779 13.3863 4.92671 13.6049 5.14523C13.8234 5.36375 13.9722 5.64216 14.0325 5.94526C14.0928 6.24836 14.0618 6.56252 13.9436 6.84803C13.8253 7.13354 13.625 7.37757 13.3681 7.54926C13.1111 7.72095 12.809 7.81259 12.5 7.81259C12.0856 7.81259 11.6882 7.64797 11.3951 7.35494C11.1021 7.06192 10.9375 6.66449 10.9375 6.25009Z" fill="#8B97AE"/>
<path d="M21.5781 8.59384C22.0595 8.17658 22.4018 7.62218 22.5593 7.00491C22.7167 6.38765 22.6818 5.737 22.4591 5.14015C22.2364 4.54331 21.8367 4.02877 21.3134 3.66548C20.7901 3.30219 20.1683 3.1075 19.5313 3.1075C18.8942 3.1075 18.2724 3.30219 17.7491 3.66548C17.2258 4.02877 16.8261 4.54331 16.6034 5.14015C16.3807 5.737 16.3458 6.38765 16.5032 7.00491C16.6607 7.62218 17.003 8.17658 17.4844 8.59384C17.4297 8.64071 17.3672 8.67978 17.3203 8.72665C17.0302 9.01708 16.8002 9.36182 16.6433 9.74118C16.4865 10.1205 16.4059 10.5271 16.4063 10.9376C16.4063 11.1448 16.4886 11.3435 16.6351 11.49C16.7816 11.6365 16.9803 11.7188 17.1875 11.7188C17.3947 11.7188 17.5934 11.6365 17.7399 11.49C17.8864 11.3435 17.9688 11.1448 17.9688 10.9376C17.9688 10.5232 18.1334 10.1258 18.4264 9.83273C18.7194 9.53971 19.1169 9.37509 19.5313 9.37509C19.9457 9.37509 20.3431 9.53971 20.6361 9.83273C20.9291 10.1258 21.0938 10.5232 21.0938 10.9376C21.0938 11.1448 21.1761 11.3435 21.3226 11.49C21.4691 11.6365 21.6678 11.7188 21.875 11.7188C22.0822 11.7188 22.2809 11.6365 22.4274 11.49C22.5739 11.3435 22.6563 11.1448 22.6563 10.9376C22.6537 10.4927 22.5563 10.0535 22.3703 9.64927C22.1844 9.24508 21.9143 8.88524 21.5781 8.59384ZM19.5313 4.68759C19.8403 4.68759 20.1424 4.77923 20.3993 4.95092C20.6563 5.12261 20.8566 5.36664 20.9748 5.65215C21.0931 5.93766 21.124 6.25182 21.0637 6.55492C21.0034 6.85801 20.8546 7.13642 20.6361 7.35494C20.4176 7.57346 20.1392 7.72228 19.8361 7.78257C19.533 7.84285 19.2188 7.81191 18.9333 7.69365C18.6478 7.57539 18.4038 7.37512 18.2321 7.11817C18.0604 6.86122 17.9688 6.55912 17.9688 6.25009C17.9688 5.83569 18.1334 5.43826 18.4264 5.14523C18.7194 4.85221 19.1169 4.68759 19.5313 4.68759Z" fill="#8B97AE"/>
<path d="M20.3126 18.7501H8.13295L8.36732 18.5235C8.51443 18.3764 8.59708 18.1769 8.59708 17.9688C8.59708 17.7608 8.51443 17.5613 8.36732 17.4142C8.22021 17.267 8.02068 17.1844 7.81263 17.1844C7.60458 17.1844 7.40506 17.267 7.25795 17.4142L5.69545 18.9767C5.62432 19.051 5.56857 19.1386 5.53138 19.2345C5.45324 19.4247 5.45324 19.638 5.53138 19.8282C5.56857 19.9241 5.62432 20.0117 5.69545 20.086L7.25795 21.6485C7.33057 21.7218 7.41698 21.7799 7.51218 21.8195C7.60738 21.8592 7.7095 21.8796 7.81263 21.8796C7.91577 21.8796 8.01788 21.8592 8.11308 21.8195C8.20829 21.7799 8.29469 21.7218 8.36732 21.6485C8.44055 21.5759 8.49867 21.4895 8.53833 21.3943C8.57799 21.2991 8.59841 21.197 8.59841 21.0938C8.59841 20.9907 8.57799 20.8886 8.53833 20.7934C8.49867 20.6982 8.44055 20.6118 8.36732 20.5392L8.13295 20.3126H20.3126C20.5198 20.3126 20.7185 20.2303 20.8651 20.0838C21.0116 19.9373 21.0939 19.7385 21.0939 19.5313C21.0939 19.3241 21.0116 19.1254 20.8651 18.9789C20.7185 18.8324 20.5198 18.7501 20.3126 18.7501Z" fill="#8B97AE"/>
<path d="M10.3828 15.8516C10.3096 15.9242 10.2515 16.0106 10.2118 16.1058C10.1721 16.201 10.1517 16.3031 10.1517 16.4063C10.1517 16.5094 10.1721 16.6115 10.2118 16.7067C10.2515 16.8019 10.3096 16.8883 10.3828 16.9609C10.4554 17.0342 10.5418 17.0923 10.637 17.132C10.7323 17.1716 10.8344 17.192 10.9375 17.192C11.0406 17.192 11.1427 17.1716 11.2379 17.132C11.3332 17.0923 11.4196 17.0342 11.4922 16.9609L13.0547 15.3984C13.1258 15.3241 13.1816 15.2365 13.2187 15.1406C13.2969 14.9504 13.2969 14.7371 13.2187 14.5469C13.1816 14.451 13.1258 14.3634 13.0547 14.2891L11.4922 12.7266C11.3451 12.5795 11.1455 12.4968 10.9375 12.4968C10.7295 12.4968 10.5299 12.5795 10.3828 12.7266C10.2357 12.8737 10.1531 13.0732 10.1531 13.2813C10.1531 13.4893 10.2357 13.6888 10.3828 13.8359L10.6172 14.0625H4.6875C4.4803 14.0625 4.28159 14.1448 4.13507 14.2913C3.98856 14.4378 3.90625 14.6366 3.90625 14.8438C3.90625 15.051 3.98856 15.2497 4.13507 15.3962C4.28159 15.5427 4.4803 15.625 4.6875 15.625H10.6172L10.3828 15.8516Z" fill="#8B97AE"/>
</svg>
