<svg width="25" height="25" viewBox="0 0 25 25" fill="none" xmlns="http://www.w3.org/2000/svg">
<path fill-rule="evenodd" clip-rule="evenodd" d="M11.1662 2.88058C11.9388 2.23675 13.0611 2.23675 13.8337 2.88058L22.1671 9.82502C22.6421 10.2208 22.9167 10.8072 22.9167 11.4255V20.8334C22.9167 21.9841 21.9839 22.9168 20.8333 22.9168H4.16665C3.01605 22.9168 2.08331 21.9841 2.08331 20.8334V11.4255C2.08331 10.8072 2.35795 10.2208 2.83293 9.82502L11.1662 2.88058ZM12.5 4.48104L4.16665 11.4255V20.8334H8.33331V17.1876C8.33331 16.037 9.26605 15.1043 10.4166 15.1043H14.5833C15.7339 15.1043 16.6667 16.037 16.6667 17.1876V20.8334H20.8333V11.4255L12.5 4.48104ZM14.5833 20.8334V17.1876H10.4166V20.8334H14.5833Z" fill="#8B97AE"/>
</svg>
