<svg width="25" height="25" viewBox="0 0 25 25" fill="none" xmlns="http://www.w3.org/2000/svg">
<path d="M18.75 2.34375C17.9774 2.34375 17.2222 2.57285 16.5798 3.00207C15.9374 3.4313 15.4368 4.04137 15.1411 4.75514C14.8454 5.46892 14.7681 6.25433 14.9188 7.01207C15.0695 7.76981 15.4416 8.46584 15.9879 9.01214C16.5342 9.55843 17.2302 9.93047 17.9879 10.0812C18.7457 10.2319 19.5311 10.1546 20.2449 9.8589C20.9586 9.56325 21.5687 9.06258 21.9979 8.4202C22.4272 7.77782 22.6563 7.02258 22.6563 6.25C22.655 5.21437 22.2431 4.22151 21.5108 3.48921C20.7785 2.75691 19.7856 2.34497 18.75 2.34375ZM18.75 8.59375C18.2865 8.59375 17.8333 8.45629 17.4479 8.19876C17.0625 7.94122 16.7621 7.57518 16.5847 7.14691C16.4073 6.71865 16.3609 6.2474 16.4513 5.79276C16.5417 5.33811 16.7649 4.9205 17.0927 4.59272C17.4205 4.26494 17.8381 4.04172 18.2928 3.95128C18.7474 3.86085 19.2187 3.90726 19.6469 4.08466C20.0752 4.26205 20.4412 4.56245 20.6988 4.94788C20.9563 5.33331 21.0938 5.78645 21.0938 6.25C21.0931 6.87139 20.8459 7.46714 20.4065 7.90653C19.9671 8.34592 19.3714 8.59307 18.75 8.59375Z" fill="#8B97AE"/>
<path d="M20.3123 11.7188C20.1051 11.7188 19.9064 11.8011 19.7599 11.9476C19.6134 12.0941 19.5311 12.2928 19.5311 12.5V20.3125C19.5309 20.5196 19.4485 20.7183 19.302 20.8647C19.1556 21.0112 18.957 21.0936 18.7498 21.0938H4.68732C4.48012 21.0938 4.28141 21.0114 4.1349 20.8649C3.98838 20.7184 3.90607 20.5197 3.90607 20.3125V6.25C3.90634 6.04288 3.98874 5.84432 4.13519 5.69787C4.28165 5.55141 4.48021 5.46902 4.68732 5.46875H12.4998C12.707 5.46875 12.9057 5.38644 13.0522 5.23993C13.1988 5.09341 13.2811 4.8947 13.2811 4.6875C13.2811 4.4803 13.1988 4.28159 13.0522 4.13507C12.9057 3.98856 12.707 3.90625 12.4998 3.90625H4.68732C4.06593 3.90693 3.47019 4.15408 3.0308 4.59347C2.59141 5.03286 2.34426 5.62861 2.34358 6.25V20.3125C2.34274 20.6204 2.403 20.9254 2.52086 21.2099C2.63872 21.4943 2.81185 21.7525 3.03022 21.9696C3.47065 22.4077 4.0661 22.6545 4.68732 22.6562H18.7498C19.3712 22.6556 19.967 22.4084 20.4063 21.969C20.8457 21.5296 21.0929 20.9339 21.0936 20.3125V12.5C21.0936 12.2928 21.0113 12.0941 20.8647 11.9476C20.7182 11.8011 20.5195 11.7188 20.3123 11.7188Z" fill="#8B97AE"/>
</svg>
