<svg width="25" height="25" viewBox="0 0 25 25" fill="none" xmlns="http://www.w3.org/2000/svg">
<path d="M20.7422 11.8516L16.2422 8.85156C15.8536 6.48805 14.7397 4.30387 13.0547 2.60156C12.9821 2.52834 12.8957 2.47022 12.8005 2.43055C12.7052 2.39089 12.6031 2.37047 12.5 2.37047C12.3969 2.37047 12.2948 2.39089 12.1995 2.43055C12.1043 2.47022 12.0179 2.52834 11.9453 2.60156C10.2603 4.30387 9.14636 6.48805 8.75781 8.85156L4.25781 11.8516C4.15034 11.9223 4.06202 12.0186 4.00069 12.1317C3.93936 12.2448 3.90692 12.3713 3.90625 12.5V15.625C3.90625 15.8322 3.98856 16.0309 4.13507 16.1774C4.28159 16.3239 4.4803 16.4062 4.6875 16.4062H6.25C6.4572 16.4062 6.65591 16.3239 6.80243 16.1774C6.94894 16.0309 7.03125 15.8322 7.03125 15.625C7.03125 15.4178 6.94894 15.2191 6.80243 15.0726C6.65591 14.9261 6.4572 14.8437 6.25 14.8437H5.46875V12.9219L8.59375 10.8359V15.625C8.59375 15.8322 8.67606 16.0309 8.82257 16.1774C8.96909 16.3239 9.1678 16.4062 9.375 16.4062H15.625C15.8322 16.4062 16.0309 16.3239 16.1774 16.1774C16.3239 16.0309 16.4062 15.8322 16.4062 15.625V10.8359L19.5312 12.9219V14.8437H18.75C18.5428 14.8437 18.3441 14.9261 18.1976 15.0726C18.0511 15.2191 17.9688 15.4178 17.9688 15.625C17.9688 15.8322 18.0511 16.0309 18.1976 16.1774C18.3441 16.3239 18.5428 16.4062 18.75 16.4062H20.3125C20.5197 16.4062 20.7184 16.3239 20.8649 16.1774C21.0114 16.0309 21.0938 15.8322 21.0938 15.625V12.5C21.0931 12.3713 21.0606 12.2448 20.9993 12.1317C20.938 12.0186 20.8497 11.9223 20.7422 11.8516ZM14.8438 14.8437H10.1562V10.6719C10.1608 8.33218 10.9908 6.06913 12.5 4.28125C14.0092 6.06913 14.8392 8.33218 14.8438 10.6719V14.8437Z" fill="#8B97AE"/>
<path d="M15.6251 17.9687C15.4179 17.9687 15.2192 18.051 15.0726 18.1976C14.9261 18.3441 14.8438 18.5428 14.8438 18.75C14.8438 18.9572 14.9261 19.1559 15.0726 19.3024C15.2192 19.4489 15.4179 19.5312 15.6251 19.5312C16.11 19.531 16.583 19.6811 16.979 19.961C17.3749 20.2408 17.6744 20.6366 17.836 21.0937H7.16414C7.32576 20.6366 7.6252 20.2408 8.02118 19.961C8.41716 19.6811 8.89019 19.531 9.37507 19.5312C9.58227 19.5312 9.78099 19.4489 9.9275 19.3024C10.074 19.1559 10.1563 18.9572 10.1563 18.75C10.1563 18.5428 10.074 18.3441 9.9275 18.1976C9.78099 18.051 9.58227 17.9687 9.37507 17.9687C8.33907 17.9687 7.3455 18.3803 6.61294 19.1129C5.88037 19.8454 5.46882 20.839 5.46882 21.875C5.46823 21.9778 5.48794 22.0797 5.52682 22.1749C5.56569 22.2701 5.62298 22.3567 5.69539 22.4297C5.8451 22.5724 6.04322 22.6534 6.25007 22.6562H18.7501C18.9573 22.6562 19.156 22.5739 19.3025 22.4274C19.449 22.2809 19.5313 22.0822 19.5313 21.875C19.5313 20.839 19.1198 19.8454 18.3872 19.1129C17.6546 18.3803 16.6611 17.9687 15.6251 17.9687Z" fill="#8B97AE"/>
</svg>
