<svg width="25" height="20" viewBox="0 0 25 20" fill="none" xmlns="http://www.w3.org/2000/svg">
<g filter="url(#filter0_d_2991_7836)">
<path fill-rule="evenodd" clip-rule="evenodd" d="M12.5019 4.2347L11.2392 2.97202C10.0838 1.81661 8.2105 1.81661 7.05507 2.97203C5.89967 4.12747 5.89965 6.00069 7.05502 7.15613L8.31765 8.41881L12.5017 12.6032L17.9341 7.17078L17.9487 7.15631C19.1042 6.00086 19.1042 4.12756 17.9487 2.97211C16.7933 1.8167 14.9201 1.81669 13.7646 2.97206L12.5019 4.2347ZM12.5017 15.1285L5.79214 8.41899C3.93943 6.56613 3.93962 3.56211 5.79238 1.70934C7.64518 -0.143449 10.6491 -0.143449 12.5019 1.70934C14.3547 -0.143368 17.3586 -0.143341 19.2114 1.70943C21.0642 3.56221 21.0642 6.56622 19.2114 8.41899L19.1883 8.44194L12.5017 15.1285Z" fill="#8B97AE"/>
<path d="M12.5019 3.5276L11.5928 2.61847L11.5928 2.61847C10.2421 1.26779 8.05221 1.26779 6.70152 2.61848L6.70151 2.61849C5.35086 3.96918 5.35084 6.15896 6.70145 7.50967L6.70146 7.50968L7.96408 8.77235L7.96409 8.77236L12.1481 12.9567L12.5016 13.3103L12.8552 12.9567L18.2855 7.52648L18.2876 7.52433L18.3001 7.51201L18.3001 7.51202L18.3023 7.50986C19.653 6.15916 19.653 3.96927 18.3023 2.61856L18.3023 2.61856C16.9516 1.26789 14.7618 1.26787 13.4111 2.6185L13.4111 2.6185L12.5019 3.5276ZM18.8347 8.08838L12.5017 14.4214L6.14571 8.06545C4.48826 6.40788 4.48842 3.72042 6.14594 2.06289C7.80347 0.405367 10.4908 0.405367 12.1484 2.06289L12.5019 2.41644L12.8555 2.0629C14.513 0.40545 17.2003 0.40547 18.8578 2.06298C20.5151 3.72028 20.5153 6.40721 18.8585 8.06476C18.8583 8.06499 18.8581 8.06521 18.8578 8.06544L18.8361 8.08701L18.8347 8.08838Z" stroke="black"/>
</g>
<defs>
<filter id="filter0_d_2991_7836" x="0.40271" y="0.319748" width="24.1982" height="22.8088" filterUnits="userSpaceOnUse" color-interpolation-filters="sRGB">
<feFlood flood-opacity="0" result="BackgroundImageFix"/>
<feColorMatrix in="SourceAlpha" type="matrix" values="0 0 0 0 0 0 0 0 0 0 0 0 0 0 0 0 0 0 127 0" result="hardAlpha"/>
<feOffset dy="4"/>
<feGaussianBlur stdDeviation="2"/>
<feComposite in2="hardAlpha" operator="out"/>
<feColorMatrix type="matrix" values="0 0 0 0 0 0 0 0 0 0 0 0 0 0 0 0 0 0 0.25 0"/>
<feBlend mode="normal" in2="BackgroundImageFix" result="effect1_dropShadow_2991_7836"/>
<feBlend mode="normal" in="SourceGraphic" in2="effect1_dropShadow_2991_7836" result="shape"/>
</filter>
</defs>
</svg>
