<svg width="25" height="25" viewBox="0 0 25 25" fill="none" xmlns="http://www.w3.org/2000/svg">
<path d="M7.8125 21.0938H5.46875V7.03125H20.3125C20.5197 7.03125 20.7184 6.94894 20.8649 6.80243C21.0114 6.65591 21.0938 6.4572 21.0938 6.25C21.0938 6.0428 21.0114 5.84409 20.8649 5.69757C20.7184 5.55106 20.5197 5.46875 20.3125 5.46875H19.5312V3.125C19.5312 2.9178 19.4489 2.71909 19.3024 2.57257C19.1559 2.42606 18.9572 2.34375 18.75 2.34375H6.25C6.0428 2.34375 5.84409 2.42606 5.69757 2.57257C5.55106 2.71909 5.46875 2.9178 5.46875 3.125V5.46875H4.6875C4.4803 5.46875 4.28159 5.55106 4.13507 5.69757C3.98856 5.84409 3.90625 6.0428 3.90625 6.25V21.875C3.90625 22.0822 3.98856 22.2809 4.13507 22.4274C4.28159 22.5739 4.4803 22.6562 4.6875 22.6562H7.8125C8.0197 22.6562 8.21841 22.5739 8.36493 22.4274C8.51144 22.2809 8.59375 22.0822 8.59375 21.875C8.59375 21.6678 8.51144 21.4691 8.36493 21.3226C8.21841 21.1761 8.0197 21.0938 7.8125 21.0938ZM7.03125 3.90625H17.9688V5.46875H7.03125V3.90625Z" fill="#8B97AE"/>
<path d="M20.3125 8.59375C20.1053 8.59375 19.9066 8.67606 19.7601 8.82257C19.6136 8.96909 19.5312 9.1678 19.5312 9.375V21.0938H14.8438V17.1875C14.8438 16.9803 14.7614 16.7816 14.6149 16.6351C14.4684 16.4886 14.2697 16.4062 14.0625 16.4062H10.9375C10.7303 16.4062 10.5316 16.4886 10.3851 16.6351C10.2386 16.7816 10.1562 16.9803 10.1562 17.1875V21.875C10.1562 22.0822 10.2386 22.2809 10.3851 22.4274C10.5316 22.5739 10.7303 22.6562 10.9375 22.6562C11.1447 22.6562 11.3434 22.5739 11.4899 22.4274C11.6364 22.2809 11.7188 22.0822 11.7188 21.875V17.9688H13.2812V21.875C13.2812 22.0822 13.3636 22.2809 13.5101 22.4274C13.6566 22.5739 13.8553 22.6562 14.0625 22.6562H20.3125C20.5197 22.6562 20.7184 22.5739 20.8649 22.4274C21.0114 22.2809 21.0938 22.0822 21.0938 21.875V9.375C21.0938 9.1678 21.0114 8.96909 20.8649 8.82257C20.7184 8.67606 20.5197 8.59375 20.3125 8.59375Z" fill="#8B97AE"/>
<path d="M17.1875 8.59375H7.8125C7.6053 8.59375 7.40659 8.67606 7.26007 8.82257C7.11356 8.96909 7.03125 9.1678 7.03125 9.375C7.03125 9.5822 7.11356 9.78091 7.26007 9.92743C7.40659 10.0739 7.6053 10.1562 7.8125 10.1562H17.1875C17.3947 10.1562 17.5934 10.0739 17.7399 9.92743C17.8864 9.78091 17.9688 9.5822 17.9688 9.375C17.9688 9.1678 17.8864 8.96909 17.7399 8.82257C17.5934 8.67606 17.3947 8.59375 17.1875 8.59375Z" fill="#8B97AE"/>
<path d="M17.1875 11.7188H7.8125C7.6053 11.7188 7.40659 11.8011 7.26007 11.9476C7.11356 12.0941 7.03125 12.2928 7.03125 12.5C7.03125 12.7072 7.11356 12.9059 7.26007 13.0524C7.40659 13.1989 7.6053 13.2812 7.8125 13.2812H17.1875C17.3947 13.2812 17.5934 13.1989 17.7399 13.0524C17.8864 12.9059 17.9688 12.7072 17.9688 12.5C17.9688 12.2928 17.8864 12.0941 17.7399 11.9476C17.5934 11.8011 17.3947 11.7188 17.1875 11.7188Z" fill="#8B97AE"/>
</svg>
