<svg width="26" height="25" viewBox="0 0 26 25" fill="none" xmlns="http://www.w3.org/2000/svg">
<path d="M15.9447 5.46874C15.9476 4.94468 15.8205 4.4283 15.5752 3.9671C15.3299 3.5059 14.9742 3.1147 14.5408 2.8295C14.1074 2.54429 13.6103 2.37423 13.0952 2.33497C12.58 2.29571 12.0635 2.38851 11.5929 2.60482C11.1224 2.82114 10.7131 3.15403 10.4026 3.57286C10.0921 3.99169 9.8904 4.48302 9.81609 5.00164C9.74177 5.52025 9.79722 6.0495 9.97731 6.54068C10.1574 7.03187 10.4564 7.46921 10.8467 7.81249C10.5153 8.10389 10.2491 8.46372 10.0658 8.86791C9.88256 9.27211 9.78647 9.71134 9.784 10.1562C9.784 10.3634 9.86513 10.5622 10.0096 10.7087C10.154 10.8552 10.3498 10.9375 10.5541 10.9375C10.7583 10.9375 10.9542 10.8552 11.0986 10.7087C11.243 10.5622 11.3242 10.3634 11.3242 10.1562C11.3242 9.74183 11.4864 9.34441 11.7753 9.05138C12.0641 8.75836 12.4559 8.59374 12.8644 8.59374C13.2728 8.59374 13.6646 8.75836 13.9534 9.05138C14.2423 9.34441 14.4045 9.74183 14.4045 10.1562C14.4045 10.3634 14.4857 10.5622 14.6301 10.7087C14.7745 10.8552 14.9704 10.9375 15.1746 10.9375C15.3789 10.9375 15.5747 10.8552 15.7192 10.7087C15.8636 10.5622 15.9447 10.3634 15.9447 10.1562C15.9422 9.71134 15.8461 9.27211 15.6629 8.86791C15.4796 8.46372 15.2134 8.10389 14.882 7.81249C15.2134 7.52108 15.4796 7.16125 15.6629 6.75706C15.8461 6.35287 15.9422 5.91363 15.9447 5.46874ZM11.3242 5.46874C11.3242 5.1597 11.4145 4.85761 11.5837 4.60066C11.753 4.34371 11.9935 4.14344 12.275 4.02517C12.5564 3.90691 12.8661 3.87597 13.1648 3.93626C13.4636 3.99655 13.738 4.14536 13.9534 4.36388C14.1688 4.5824 14.3155 4.86081 14.3749 5.16391C14.4344 5.467 14.4039 5.78117 14.2873 6.06668C14.1707 6.35219 13.9733 6.59622 13.72 6.76791C13.4667 6.9396 13.169 7.03124 12.8644 7.03124C12.4559 7.03124 12.0641 6.86662 11.7753 6.57359C11.4864 6.28056 11.3242 5.88314 11.3242 5.46874Z" fill="#6781F7"/>
<path d="M9.01386 17.1875C9.01677 16.6634 8.88971 16.147 8.64438 15.6858C8.39905 15.2246 8.04333 14.8334 7.60995 14.5482C7.17657 14.263 6.67945 14.093 6.16432 14.0537C5.6492 14.0144 5.13261 14.1072 4.66209 14.3236C4.19157 14.5399 3.78223 14.8728 3.47173 15.2916C3.16124 15.7104 2.95955 16.2018 2.88524 16.7204C2.81093 17.239 2.86637 17.7682 3.04647 18.2594C3.22657 18.7506 3.52554 19.1879 3.91587 19.5312L3.75415 19.664C3.46819 19.9545 3.24143 20.2992 3.08684 20.6786C2.93224 21.0579 2.85283 21.4645 2.85315 21.875C2.85315 22.0822 2.93428 22.2809 3.0787 22.4274C3.22312 22.5739 3.419 22.6562 3.62324 22.6562C3.82748 22.6562 4.02336 22.5739 4.16777 22.4274C4.31219 22.2809 4.39333 22.0822 4.39333 21.875C4.39333 21.4606 4.5556 21.0631 4.84444 20.7701C5.13328 20.4771 5.52503 20.3125 5.93351 20.3125C6.34199 20.3125 6.73374 20.4771 7.02258 20.7701C7.31142 21.0631 7.47369 21.4606 7.47369 21.875C7.47369 22.0822 7.55482 22.2809 7.69924 22.4274C7.84366 22.5739 8.03954 22.6562 8.24378 22.6562C8.44802 22.6562 8.64389 22.5739 8.78831 22.4274C8.93273 22.2809 9.01386 22.0822 9.01386 21.875C9.01139 21.4301 8.9153 20.9908 8.73203 20.5866C8.54876 20.1825 8.28253 19.8226 7.95114 19.5312C8.28253 19.2398 8.54876 18.88 8.73203 18.4758C8.9153 18.0716 9.01139 17.6324 9.01386 17.1875ZM5.93351 15.625C6.23813 15.625 6.5359 15.7166 6.78919 15.8883C7.04247 16.06 7.23987 16.304 7.35645 16.5895C7.47302 16.875 7.50352 17.1892 7.44409 17.4923C7.38466 17.7954 7.23798 18.0738 7.02258 18.2923C6.80718 18.5108 6.53275 18.6597 6.23398 18.7199C5.93522 18.7802 5.62554 18.7493 5.34411 18.631C5.06268 18.5128 4.82213 18.3125 4.6529 18.0556C4.48366 17.7986 4.39333 17.4965 4.39333 17.1875C4.39333 16.7731 4.5556 16.3756 4.84444 16.0826C5.13328 15.7896 5.52503 15.625 5.93351 15.625Z" fill="#6781F7"/>
<path d="M21.8128 19.5313C22.2873 19.1141 22.6247 18.5597 22.7799 17.9424C22.9351 17.3252 22.9007 16.6745 22.6812 16.0777C22.4617 15.4808 22.0676 14.9663 21.5518 14.603C21.036 14.2397 20.4231 14.045 19.7951 14.045C19.1672 14.045 18.5543 14.2397 18.0385 14.603C17.5226 14.9663 17.1286 15.4808 16.9091 16.0777C16.6896 16.6745 16.6552 17.3252 16.8104 17.9424C16.9656 18.5597 17.303 19.1141 17.7775 19.5313C17.4461 19.8228 17.1799 20.1826 16.9966 20.5868C16.8133 20.991 16.7173 21.4302 16.7148 21.8751C16.7148 22.0823 16.7959 22.281 16.9403 22.4275C17.0848 22.574 17.2806 22.6563 17.4849 22.6563C17.6891 22.6563 17.885 22.574 18.0294 22.4275C18.1738 22.281 18.255 22.0823 18.255 21.8751C18.255 21.4607 18.4172 21.0633 18.7061 20.7702C18.9949 20.4772 19.3867 20.3126 19.7951 20.3126C20.2036 20.3126 20.5954 20.4772 20.8842 20.7702C21.1731 21.0633 21.3353 21.4607 21.3353 21.8751C21.3353 22.0823 21.4165 22.281 21.5609 22.4275C21.7053 22.574 21.9012 22.6563 22.1054 22.6563C22.3096 22.6563 22.5055 22.574 22.6499 22.4275C22.7944 22.281 22.8755 22.0823 22.8755 21.8751C22.873 21.4302 22.7769 20.991 22.5937 20.5868C22.4104 20.1826 22.1442 19.8228 21.8128 19.5313ZM18.255 17.1876C18.255 16.8786 18.3453 16.5765 18.5145 16.3195C18.6838 16.0626 18.9243 15.8623 19.2057 15.744C19.4872 15.6258 19.7968 15.5948 20.0956 15.6551C20.3944 15.7154 20.6688 15.8642 20.8842 16.0827C21.0996 16.3013 21.2463 16.5797 21.3057 16.8828C21.3652 17.1859 21.3347 17.5 21.2181 17.7855C21.1015 18.071 20.9041 18.3151 20.6508 18.4868C20.3975 18.6585 20.0998 18.7501 19.7951 18.7501C19.3867 18.7501 18.9949 18.5855 18.7061 18.2925C18.4172 17.9994 18.255 17.602 18.255 17.1876Z" fill="#6781F7"/>
<path d="M14.4045 16.4062H13.6344V12.5C13.6344 12.2928 13.5533 12.0941 13.4089 11.9476C13.2645 11.8011 13.0686 11.7188 12.8643 11.7188C12.6601 11.7188 12.4642 11.8011 12.3198 11.9476C12.1754 12.0941 12.0943 12.2928 12.0943 12.5V16.4062H11.3242C11.1199 16.4062 10.9241 16.4886 10.7796 16.6351C10.6352 16.7816 10.5541 16.9803 10.5541 17.1875C10.5541 17.3947 10.6352 17.5934 10.7796 17.7399C10.9241 17.8864 11.1199 17.9688 11.3242 17.9688H14.4045C14.6088 17.9688 14.8046 17.8864 14.9491 17.7399C15.0935 17.5934 15.1746 17.3947 15.1746 17.1875C15.1746 16.9803 15.0935 16.7816 14.9491 16.6351C14.8046 16.4886 14.6088 16.4062 14.4045 16.4062Z" fill="#6781F7"/>
</svg>
